<svg xmlns="http://www.w3.org/2000/svg" xmlns:xlink="http://www.w3.org/1999/xlink" contentStyleType="text/css" data-diagram-type="SEQUENCE" height="1134px" preserveAspectRatio="none" style="width:1574px;height:1134px;background:#FFFFFF;" version="1.1" viewBox="0 0 1574 1134" width="1574px" zoomAndPan="magnify"><defs/><g><rect fill="none" height="176.8633" style="stroke:#000000;stroke-width:1.5;" width="742.5698" x="736.1382" y="450.2148"/><rect fill="none" height="176.8633" style="stroke:#000000;stroke-width:1.5;" width="742.5698" x="736.1382" y="641.0781"/><g><title>User</title><rect fill="#000000" fill-opacity="0.00000" height="971.9375" width="8" x="19.1826" y="81.4883"/><line style="stroke:#181818;stroke-width:0.5;stroke-dasharray:5,5;" x1="23" x2="23" y1="81.4883" y2="1053.4258"/></g><g><title>CLI</title><rect fill="#000000" fill-opacity="0.00000" height="971.9375" width="8" x="176.5469" y="81.4883"/><line style="stroke:#181818;stroke-width:0.5;stroke-dasharray:5,5;" x1="179.9546" x2="179.9546" y1="81.4883" y2="1053.4258"/></g><g><title>Core Library</title><rect fill="#000000" fill-opacity="0.00000" height="971.9375" width="8" x="498.6685" y="81.4883"/><line style="stroke:#181818;stroke-width:0.5;stroke-dasharray:5,5;" x1="502.1333" x2="502.1333" y1="81.4883" y2="1053.4258"/></g><g><title>Format</title><rect fill="#000000" fill-opacity="0.00000" height="971.9375" width="8" x="696.1094" y="81.4883"/><line style="stroke:#181818;stroke-width:0.5;stroke-dasharray:5,5;" x1="700.0806" x2="700.0806" y1="81.4883" y2="1053.4258"/></g><g><title>JPEG Parser</title><rect fill="#000000" fill-opacity="0.00000" height="971.9375" width="8" x="787.1836" y="81.4883"/><line style="stroke:#181818;stroke-width:0.5;stroke-dasharray:5,5;" x1="791.1382" x2="791.1382" y1="81.4883" y2="1053.4258"/></g><g><title>EXIF Parser</title><rect fill="#000000" fill-opacity="0.00000" height="971.9375" width="8" x="1033.415" y="81.4883"/><line style="stroke:#181818;stroke-width:0.5;stroke-dasharray:5,5;" x1="1037.3232" x2="1037.3232" y1="81.4883" y2="1053.4258"/></g><g><title>XMP Parser</title><rect fill="#000000" fill-opacity="0.00000" height="971.9375" width="8" x="1197.6895" y="81.4883"/><line style="stroke:#181818;stroke-width:0.5;stroke-dasharray:5,5;" x1="1201.2627" x2="1201.2627" y1="81.4883" y2="1053.4258"/></g><g><title>I.O Layer</title><rect fill="#000000" fill-opacity="0.00000" height="971.9375" width="8" x="1308.3643" y="81.4883"/><line style="stroke:#181818;stroke-width:0.5;stroke-dasharray:5,5;" x1="1311.6084" x2="1311.6084" y1="81.4883" y2="1053.4258"/></g><g><title>Tag Registry</title><rect fill="#000000" fill-opacity="0.00000" height="971.9375" width="8" x="1415.4141" y="81.4883"/><line style="stroke:#181818;stroke-width:0.5;stroke-dasharray:5,5;" x1="1419.1201" x2="1419.1201" y1="81.4883" y2="1053.4258"/></g><g><title>File System</title><rect fill="#000000" fill-opacity="0.00000" height="971.9375" width="8" x="1519.6714" y="81.4883"/><line style="stroke:#181818;stroke-width:0.5;stroke-dasharray:5,5;" x1="1522.708" x2="1522.708" y1="81.4883" y2="1053.4258"/></g><g class="participant participant-head" data-participant="User"><text fill="#000000" font-family="sans-serif" font-size="14" lengthAdjust="spacing" textLength="30.3652" x="5" y="78.5352">User</text><ellipse cx="23.1826" cy="13.5" fill="#E2E2F0" rx="8" ry="8" style="stroke:#181818;stroke-width:0.5;"/><path d="M23.1826,21.5 L23.1826,48.5 M10.1826,29.5 L36.1826,29.5 M23.1826,48.5 L10.1826,63.5 M23.1826,48.5 L36.1826,63.5" fill="none" style="stroke:#181818;stroke-width:0.5;"/></g><g class="participant participant-tail" data-participant="User"><text fill="#000000" font-family="sans-serif" font-size="14" lengthAdjust="spacing" textLength="30.3652" x="5" y="1065.9609">User</text><ellipse cx="23.1826" cy="1077.4141" fill="#E2E2F0" rx="8" ry="8" style="stroke:#181818;stroke-width:0.5;"/><path d="M23.1826,1085.4141 L23.1826,1112.4141 M10.1826,1093.4141 L36.1826,1093.4141 M23.1826,1112.4141 L10.1826,1127.4141 M23.1826,1112.4141 L36.1826,1127.4141" fill="none" style="stroke:#181818;stroke-width:0.5;"/></g><g class="participant participant-head" data-participant="CLI"><rect fill="#E2E2F0" height="30.4883" rx="2.5" ry="2.5" style="stroke:#181818;stroke-width:0.5;" width="35.1846" x="162.9546" y="50"/><text fill="#000000" font-family="sans-serif" font-size="14" lengthAdjust="spacing" textLength="21.1846" x="169.9546" y="70.5352">CLI</text></g><g class="participant participant-tail" data-participant="CLI"><rect fill="#E2E2F0" height="30.4883" rx="2.5" ry="2.5" style="stroke:#181818;stroke-width:0.5;" width="35.1846" x="162.9546" y="1052.4258"/><text fill="#000000" font-family="sans-serif" font-size="14" lengthAdjust="spacing" textLength="21.1846" x="169.9546" y="1072.9609">CLI</text></g><g class="participant participant-head" data-participant="Core"><rect fill="#E2E2F0" height="46.9766" rx="2.5" ry="2.5" style="stroke:#181818;stroke-width:0.5;" width="97.0703" x="454.1333" y="33.5117"/><text fill="#000000" font-family="sans-serif" font-size="14" lengthAdjust="spacing" textLength="83.0703" x="461.1333" y="54.0469">Core Library</text><text fill="#000000" font-family="sans-serif" font-size="14" lengthAdjust="spacing" textLength="81.7168" x="461.8101" y="70.5352">(API Facade)</text></g><g class="participant participant-tail" data-participant="Core"><rect fill="#E2E2F0" height="46.9766" rx="2.5" ry="2.5" style="stroke:#181818;stroke-width:0.5;" width="97.0703" x="454.1333" y="1052.4258"/><text fill="#000000" font-family="sans-serif" font-size="14" lengthAdjust="spacing" textLength="83.0703" x="461.1333" y="1072.9609">Core Library</text><text fill="#000000" font-family="sans-serif" font-size="14" lengthAdjust="spacing" textLength="81.7168" x="461.8101" y="1089.4492">(API Facade)</text></g><g class="participant participant-head" data-participant="Detector"><rect fill="#E2E2F0" height="46.9766" rx="2.5" ry="2.5" style="stroke:#181818;stroke-width:0.5;" width="72.0576" x="664.0806" y="33.5117"/><text fill="#000000" font-family="sans-serif" font-size="14" lengthAdjust="spacing" textLength="47.8721" x="676.1733" y="54.0469">Format</text><text fill="#000000" font-family="sans-serif" font-size="14" lengthAdjust="spacing" textLength="58.0576" x="671.0806" y="70.5352">Detector</text></g><g class="participant participant-tail" data-participant="Detector"><rect fill="#E2E2F0" height="46.9766" rx="2.5" ry="2.5" style="stroke:#181818;stroke-width:0.5;" width="72.0576" x="664.0806" y="1052.4258"/><text fill="#000000" font-family="sans-serif" font-size="14" lengthAdjust="spacing" textLength="47.8721" x="676.1733" y="1072.9609">Format</text><text fill="#000000" font-family="sans-serif" font-size="14" lengthAdjust="spacing" textLength="58.0576" x="671.0806" y="1089.4492">Detector</text></g><g class="participant participant-head" data-participant="JPEG"><rect fill="#E2E2F0" height="30.4883" rx="2.5" ry="2.5" style="stroke:#181818;stroke-width:0.5;" width="90.0908" x="746.1382" y="50"/><text fill="#000000" font-family="sans-serif" font-size="14" lengthAdjust="spacing" textLength="76.0908" x="753.1382" y="70.5352">JPEG Parser</text></g><g class="participant participant-tail" data-participant="JPEG"><rect fill="#E2E2F0" height="30.4883" rx="2.5" ry="2.5" style="stroke:#181818;stroke-width:0.5;" width="90.0908" x="746.1382" y="1052.4258"/><text fill="#000000" font-family="sans-serif" font-size="14" lengthAdjust="spacing" textLength="76.0908" x="753.1382" y="1072.9609">JPEG Parser</text></g><g class="participant participant-head" data-participant="EXIF"><rect fill="#E2E2F0" height="46.9766" rx="2.5" ry="2.5" style="stroke:#181818;stroke-width:0.5;" width="88.1836" x="993.3232" y="33.5117"/><text fill="#000000" font-family="sans-serif" font-size="14" lengthAdjust="spacing" textLength="74.1836" x="1000.3232" y="54.0469">EXIF Parser</text><text fill="#000000" font-family="sans-serif" font-size="14" lengthAdjust="spacing" textLength="63.458" x="1005.686" y="70.5352">(TIFF IFD)</text></g><g class="participant participant-tail" data-participant="EXIF"><rect fill="#E2E2F0" height="46.9766" rx="2.5" ry="2.5" style="stroke:#181818;stroke-width:0.5;" width="88.1836" x="993.3232" y="1052.4258"/><text fill="#000000" font-family="sans-serif" font-size="14" lengthAdjust="spacing" textLength="74.1836" x="1000.3232" y="1072.9609">EXIF Parser</text><text fill="#000000" font-family="sans-serif" font-size="14" lengthAdjust="spacing" textLength="63.458" x="1005.686" y="1089.4492">(TIFF IFD)</text></g><g class="participant participant-head" data-participant="XMP"><rect fill="#E2E2F0" height="30.4883" rx="2.5" ry="2.5" style="stroke:#181818;stroke-width:0.5;" width="88.8535" x="1157.2627" y="50"/><text fill="#000000" font-family="sans-serif" font-size="14" lengthAdjust="spacing" textLength="74.8535" x="1164.2627" y="70.5352">XMP Parser</text></g><g class="participant participant-tail" data-participant="XMP"><rect fill="#E2E2F0" height="30.4883" rx="2.5" ry="2.5" style="stroke:#181818;stroke-width:0.5;" width="88.8535" x="1157.2627" y="1052.4258"/><text fill="#000000" font-family="sans-serif" font-size="14" lengthAdjust="spacing" textLength="74.8535" x="1164.2627" y="1072.9609">XMP Parser</text></g><g class="participant participant-head" data-participant="IO"><rect fill="#E2E2F0" height="46.9766" rx="2.5" ry="2.5" style="stroke:#181818;stroke-width:0.5;" width="95.5117" x="1264.6084" y="33.5117"/><text fill="#000000" font-family="sans-serif" font-size="14" lengthAdjust="spacing" textLength="62.7197" x="1281.0044" y="54.0469">I/O Layer</text><text fill="#000000" font-family="sans-serif" font-size="14" lengthAdjust="spacing" textLength="81.5117" x="1271.6084" y="70.5352">(memmap2)</text></g><g class="participant participant-tail" data-participant="IO"><rect fill="#E2E2F0" height="46.9766" rx="2.5" ry="2.5" style="stroke:#181818;stroke-width:0.5;" width="95.5117" x="1264.6084" y="1052.4258"/><text fill="#000000" font-family="sans-serif" font-size="14" lengthAdjust="spacing" textLength="62.7197" x="1281.0044" y="1072.9609">I/O Layer</text><text fill="#000000" font-family="sans-serif" font-size="14" lengthAdjust="spacing" textLength="81.5117" x="1271.6084" y="1089.4492">(memmap2)</text></g><g class="participant participant-head" data-participant="Registry"><rect fill="#E2E2F0" height="30.4883" rx="2.5" ry="2.5" style="stroke:#181818;stroke-width:0.5;" width="98.5879" x="1370.1201" y="50"/><text fill="#000000" font-family="sans-serif" font-size="14" lengthAdjust="spacing" textLength="84.5879" x="1377.1201" y="70.5352">Tag Registry</text></g><g class="participant participant-tail" data-participant="Registry"><rect fill="#E2E2F0" height="30.4883" rx="2.5" ry="2.5" style="stroke:#181818;stroke-width:0.5;" width="98.5879" x="1370.1201" y="1052.4258"/><text fill="#000000" font-family="sans-serif" font-size="14" lengthAdjust="spacing" textLength="84.5879" x="1377.1201" y="1072.9609">Tag Registry</text></g><g class="participant participant-head" data-participant="FS"><rect fill="#E2E2F0" height="30.4883" rx="2.5" ry="2.5" style="stroke:#181818;stroke-width:0.5;" width="89.9268" x="1478.708" y="50"/><text fill="#000000" font-family="sans-serif" font-size="14" lengthAdjust="spacing" textLength="75.9268" x="1485.708" y="70.5352">File System</text></g><g class="participant participant-tail" data-participant="FS"><rect fill="#E2E2F0" height="30.4883" rx="2.5" ry="2.5" style="stroke:#181818;stroke-width:0.5;" width="89.9268" x="1478.708" y="1052.4258"/><text fill="#000000" font-family="sans-serif" font-size="14" lengthAdjust="spacing" textLength="75.9268" x="1485.708" y="1072.9609">File System</text></g><g class="message" data-participant-1="User" data-participant-2="CLI"><polygon fill="#181818" points="168.5469,108.7988,178.5469,112.7988,168.5469,116.7988,172.5469,112.7988" style="stroke:#181818;stroke-width:1;"/><line style="stroke:#181818;stroke-width:1;" x1="23.1826" x2="174.5469" y1="112.7988" y2="112.7988"/><text fill="#000000" font-family="sans-serif" font-size="13" lengthAdjust="spacing" textLength="133.3643" x="30.1826" y="108.0566">exiftool-rs photo.jpg</text></g><g class="message" data-participant-1="CLI" data-participant-2="Core"><polygon fill="#181818" points="490.6685,138.1094,500.6685,142.1094,490.6685,146.1094,494.6685,142.1094" style="stroke:#181818;stroke-width:1;"/><line style="stroke:#181818;stroke-width:1;" x1="180.5469" x2="496.6685" y1="142.1094" y2="142.1094"/><text fill="#000000" font-family="sans-serif" font-size="13" lengthAdjust="spacing" textLength="210.7295" x="187.5469" y="137.3672">Metadata::from_path("photo.jpg")</text></g><g class="message" data-participant-1="Core" data-participant-2="Detector"><polygon fill="#181818" points="688.1094,167.4199,698.1094,171.4199,688.1094,175.4199,692.1094,171.4199" style="stroke:#181818;stroke-width:1;"/><line style="stroke:#181818;stroke-width:1;" x1="502.6685" x2="694.1094" y1="171.4199" y2="171.4199"/><text fill="#000000" font-family="sans-serif" font-size="13" lengthAdjust="spacing" textLength="167.4194" x="509.6685" y="166.6777">detect_format("photo.jpg")</text></g><g class="message" data-participant-1="Detector" data-participant-2="IO"><polygon fill="#181818" points="1300.3643,196.7305,1310.3643,200.7305,1300.3643,204.7305,1304.3643,200.7305" style="stroke:#181818;stroke-width:1;"/><line style="stroke:#181818;stroke-width:1;" x1="700.1094" x2="1306.3643" y1="200.7305" y2="200.7305"/><text fill="#000000" font-family="sans-serif" font-size="13" lengthAdjust="spacing" textLength="216.7407" x="707.1094" y="195.9883">read_magic_bytes("photo.jpg", 16)</text></g><g class="message" data-participant-1="IO" data-participant-2="FS"><polygon fill="#181818" points="1511.6714,226.041,1521.6714,230.041,1511.6714,234.041,1515.6714,230.041" style="stroke:#181818;stroke-width:1;"/><line style="stroke:#181818;stroke-width:1;" x1="1312.3643" x2="1517.6714" y1="230.041" y2="230.041"/><text fill="#000000" font-family="sans-serif" font-size="13" lengthAdjust="spacing" textLength="94.8721" x="1319.3643" y="225.2988">open() + read()</text></g><g class="message" data-participant-1="FS" data-participant-2="IO"><polygon fill="#181818" points="1323.3643,255.3516,1313.3643,259.3516,1323.3643,263.3516,1319.3643,259.3516" style="stroke:#181818;stroke-width:1;"/><line style="stroke:#181818;stroke-width:1;stroke-dasharray:2,2;" x1="1317.3643" x2="1522.6714" y1="259.3516" y2="259.3516"/><text fill="#000000" font-family="sans-serif" font-size="13" lengthAdjust="spacing" textLength="177.709" x="1329.3643" y="254.6094">bytes [0xFF, 0xD8, 0xFF, ...]</text></g><g class="message" data-participant-1="IO" data-participant-2="Detector"><polygon fill="#181818" points="711.1094,284.6621,701.1094,288.6621,711.1094,292.6621,707.1094,288.6621" style="stroke:#181818;stroke-width:1;"/><line style="stroke:#181818;stroke-width:1;stroke-dasharray:2,2;" x1="705.1094" x2="1311.3643" y1="288.6621" y2="288.6621"/><text fill="#000000" font-family="sans-serif" font-size="13" lengthAdjust="spacing" textLength="75.6577" x="717.1094" y="283.9199">magic bytes</text></g><g class="message" data-participant-1="Detector" data-participant-2="Core"><polygon fill="#181818" points="513.6685,313.9727,503.6685,317.9727,513.6685,321.9727,509.6685,317.9727" style="stroke:#181818;stroke-width:1;"/><line style="stroke:#181818;stroke-width:1;stroke-dasharray:2,2;" x1="507.6685" x2="699.1094" y1="317.9727" y2="317.9727"/><text fill="#000000" font-family="sans-serif" font-size="13" lengthAdjust="spacing" textLength="102.0767" x="519.6685" y="313.2305">FileFormat::JPEG</text></g><g class="message" data-participant-1="Core" data-participant-2="JPEG"><polygon fill="#181818" points="779.1836,343.2832,789.1836,347.2832,779.1836,351.2832,783.1836,347.2832" style="stroke:#181818;stroke-width:1;"/><line style="stroke:#181818;stroke-width:1;" x1="502.6685" x2="785.1836" y1="347.2832" y2="347.2832"/><text fill="#000000" font-family="sans-serif" font-size="13" lengthAdjust="spacing" textLength="103.7461" x="509.6685" y="342.541">parse(io_handle)</text></g><g class="message" data-participant-1="JPEG" data-participant-2="IO"><polygon fill="#181818" points="1300.3643,372.5938,1310.3643,376.5938,1300.3643,380.5938,1304.3643,376.5938" style="stroke:#181818;stroke-width:1;"/><line style="stroke:#181818;stroke-width:1;" x1="791.1836" x2="1306.3643" y1="376.5938" y2="376.5938"/><text fill="#000000" font-family="sans-serif" font-size="13" lengthAdjust="spacing" textLength="155.0859" x="798.1836" y="371.8516">read_segment_markers()</text></g><g class="message" data-participant-1="IO" data-participant-2="FS"><polygon fill="#181818" points="1511.6714,401.9043,1521.6714,405.9043,1511.6714,409.9043,1515.6714,405.9043" style="stroke:#181818;stroke-width:1;"/><line style="stroke:#181818;stroke-width:1;" x1="1312.3643" x2="1517.6714" y1="405.9043" y2="405.9043"/><text fill="#000000" font-family="sans-serif" font-size="13" lengthAdjust="spacing" textLength="99.5503" x="1319.3643" y="401.1621">read() at offsets</text></g><g class="message" data-participant-1="FS" data-participant-2="IO"><polygon fill="#181818" points="1323.3643,431.2148,1313.3643,435.2148,1323.3643,439.2148,1319.3643,435.2148" style="stroke:#181818;stroke-width:1;"/><line style="stroke:#181818;stroke-width:1;stroke-dasharray:2,2;" x1="1317.3643" x2="1522.6714" y1="435.2148" y2="435.2148"/><text fill="#000000" font-family="sans-serif" font-size="13" lengthAdjust="spacing" textLength="92.6948" x="1329.3643" y="430.4727">JPEG segments</text></g><path d="M736.1382,450.2148 L798.2769,450.2148 L798.2769,457.5254 L788.2769,467.5254 L736.1382,467.5254 L736.1382,450.2148" fill="#EEEEEE" style="stroke:#000000;stroke-width:1.5;"/><rect fill="none" height="176.8633" style="stroke:#000000;stroke-width:1.5;" width="742.5698" x="736.1382" y="450.2148"/><text fill="#000000" font-family="sans-serif" font-size="13" font-weight="bold" lengthAdjust="spacing" textLength="17.1387" x="751.1382" y="463.7832">alt</text><text fill="#000000" font-family="sans-serif" font-size="11" font-weight="bold" lengthAdjust="spacing" textLength="175.1997" x="813.2769" y="462.8496">[EXIF Segment Found (0xFFE1)]</text><g class="message" data-participant-1="JPEG" data-participant-2="EXIF"><polygon fill="#181818" points="1025.415,484.8359,1035.415,488.8359,1025.415,492.8359,1029.415,488.8359" style="stroke:#181818;stroke-width:1;"/><line style="stroke:#181818;stroke-width:1;" x1="791.1836" x2="1031.415" y1="488.8359" y2="488.8359"/><text fill="#000000" font-family="sans-serif" font-size="13" lengthAdjust="spacing" textLength="222.2314" x="798.1836" y="484.0938">parse_exif_segment(segment_data)</text></g><g class="message" data-participant-1="EXIF" data-participant-2="EXIF"><line style="stroke:#181818;stroke-width:1;" x1="1037.415" x2="1079.415" y1="518.1465" y2="518.1465"/><line style="stroke:#181818;stroke-width:1;" x1="1079.415" x2="1079.415" y1="518.1465" y2="531.1465"/><line style="stroke:#181818;stroke-width:1;" x1="1038.415" x2="1079.415" y1="531.1465" y2="531.1465"/><polygon fill="#181818" points="1048.415,527.1465,1038.415,531.1465,1048.415,535.1465,1044.415,531.1465" style="stroke:#181818;stroke-width:1;"/><text fill="#000000" font-family="sans-serif" font-size="13" lengthAdjust="spacing" textLength="150.2744" x="1044.415" y="513.4043">parse TIFF IFD structure</text></g><g class="message" data-participant-1="EXIF" data-participant-2="Registry"><polygon fill="#181818" points="1407.4141,556.457,1417.4141,560.457,1407.4141,564.457,1411.4141,560.457" style="stroke:#181818;stroke-width:1;"/><line style="stroke:#181818;stroke-width:1;" x1="1037.415" x2="1413.4141" y1="560.457" y2="560.457"/><text fill="#000000" font-family="sans-serif" font-size="13" lengthAdjust="spacing" textLength="256.5659" x="1044.415" y="555.7148">lookup_tag(0x010F) // Manufacturer tag</text></g><g class="message" data-participant-1="Registry" data-participant-2="EXIF"><polygon fill="#181818" points="1048.415,585.7676,1038.415,589.7676,1048.415,593.7676,1044.415,589.7676" style="stroke:#181818;stroke-width:1;"/><line style="stroke:#181818;stroke-width:1;stroke-dasharray:2,2;" x1="1042.415" x2="1418.4141" y1="589.7676" y2="589.7676"/><text fill="#000000" font-family="sans-serif" font-size="13" lengthAdjust="spacing" textLength="326.9995" x="1054.415" y="585.0254">TagDescriptor { name: "EXIF:Make", type: String, ... }</text></g><g class="message" data-participant-1="EXIF" data-participant-2="JPEG"><polygon fill="#181818" points="802.1836,615.0781,792.1836,619.0781,802.1836,623.0781,798.1836,619.0781" style="stroke:#181818;stroke-width:1;"/><line style="stroke:#181818;stroke-width:1;stroke-dasharray:2,2;" x1="796.1836" x2="1036.415" y1="619.0781" y2="619.0781"/><text fill="#000000" font-family="sans-serif" font-size="13" lengthAdjust="spacing" textLength="170.6758" x="808.1836" y="614.3359">Vec&lt;TagValue&gt; (EXIF tags)</text></g><path d="M736.1382,641.0781 L798.2769,641.0781 L798.2769,648.3887 L788.2769,658.3887 L736.1382,658.3887 L736.1382,641.0781" fill="#EEEEEE" style="stroke:#000000;stroke-width:1.5;"/><rect fill="none" height="176.8633" style="stroke:#000000;stroke-width:1.5;" width="742.5698" x="736.1382" y="641.0781"/><text fill="#000000" font-family="sans-serif" font-size="13" font-weight="bold" lengthAdjust="spacing" textLength="17.1387" x="751.1382" y="654.6465">alt</text><text fill="#000000" font-family="sans-serif" font-size="11" font-weight="bold" lengthAdjust="spacing" textLength="275.5962" x="813.2769" y="653.7129">[XMP Segment Found (0xFFE1 with XMP marker)]</text><g class="message" data-participant-1="JPEG" data-participant-2="XMP"><polygon fill="#181818" points="1189.6895,675.6992,1199.6895,679.6992,1189.6895,683.6992,1193.6895,679.6992" style="stroke:#181818;stroke-width:1;"/><line style="stroke:#181818;stroke-width:1;" x1="791.1836" x2="1195.6895" y1="679.6992" y2="679.6992"/><text fill="#000000" font-family="sans-serif" font-size="13" lengthAdjust="spacing" textLength="226.77" x="798.1836" y="674.957">parse_xmp_segment(segment_data)</text></g><g class="message" data-participant-1="XMP" data-participant-2="XMP"><line style="stroke:#181818;stroke-width:1;" x1="1201.6895" x2="1243.6895" y1="709.0098" y2="709.0098"/><line style="stroke:#181818;stroke-width:1;" x1="1243.6895" x2="1243.6895" y1="709.0098" y2="722.0098"/><line style="stroke:#181818;stroke-width:1;" x1="1202.6895" x2="1243.6895" y1="722.0098" y2="722.0098"/><polygon fill="#181818" points="1212.6895,718.0098,1202.6895,722.0098,1212.6895,726.0098,1208.6895,722.0098" style="stroke:#181818;stroke-width:1;"/><text fill="#000000" font-family="sans-serif" font-size="13" lengthAdjust="spacing" textLength="96.6748" x="1208.6895" y="704.2676">parse RDF/XML</text></g><g class="message" data-participant-1="XMP" data-participant-2="Registry"><polygon fill="#181818" points="1407.4141,747.3203,1417.4141,751.3203,1407.4141,755.3203,1411.4141,751.3203" style="stroke:#181818;stroke-width:1;"/><line style="stroke:#181818;stroke-width:1;" x1="1201.6895" x2="1413.4141" y1="751.3203" y2="751.3203"/><text fill="#000000" font-family="sans-serif" font-size="13" lengthAdjust="spacing" textLength="190.6582" x="1208.6895" y="746.5781">lookup_tag("xmp:CreateDate")</text></g><g class="message" data-participant-1="Registry" data-participant-2="XMP"><polygon fill="#181818" points="1212.6895,776.6309,1202.6895,780.6309,1212.6895,784.6309,1208.6895,780.6309" style="stroke:#181818;stroke-width:1;"/><line style="stroke:#181818;stroke-width:1;stroke-dasharray:2,2;" x1="1206.6895" x2="1418.4141" y1="780.6309" y2="780.6309"/><text fill="#000000" font-family="sans-serif" font-size="13" lengthAdjust="spacing" textLength="89.1973" x="1218.6895" y="775.8887">TagDescriptor</text></g><g class="message" data-participant-1="XMP" data-participant-2="JPEG"><polygon fill="#181818" points="802.1836,805.9414,792.1836,809.9414,802.1836,813.9414,798.1836,809.9414" style="stroke:#181818;stroke-width:1;"/><line style="stroke:#181818;stroke-width:1;stroke-dasharray:2,2;" x1="796.1836" x2="1200.6895" y1="809.9414" y2="809.9414"/><text fill="#000000" font-family="sans-serif" font-size="13" lengthAdjust="spacing" textLength="171.2979" x="808.1836" y="805.1992">Vec&lt;TagValue&gt; (XMP tags)</text></g><g class="message" data-participant-1="JPEG" data-participant-2="Core"><polygon fill="#181818" points="513.6685,842.252,503.6685,846.252,513.6685,850.252,509.6685,846.252" style="stroke:#181818;stroke-width:1;"/><line style="stroke:#181818;stroke-width:1;stroke-dasharray:2,2;" x1="507.6685" x2="790.1836" y1="846.252" y2="846.252"/><text fill="#000000" font-family="sans-serif" font-size="13" lengthAdjust="spacing" textLength="161.0337" x="519.6685" y="841.5098">MetadataMap { tags: [...] }</text></g><g class="message" data-participant-1="Core" data-participant-2="Core"><line style="stroke:#181818;stroke-width:1;" x1="502.6685" x2="544.6685" y1="875.5625" y2="875.5625"/><line style="stroke:#181818;stroke-width:1;" x1="544.6685" x2="544.6685" y1="875.5625" y2="888.5625"/><line style="stroke:#181818;stroke-width:1;" x1="503.6685" x2="544.6685" y1="888.5625" y2="888.5625"/><polygon fill="#181818" points="513.6685,884.5625,503.6685,888.5625,513.6685,892.5625,509.6685,888.5625" style="stroke:#181818;stroke-width:1;"/><text fill="#000000" font-family="sans-serif" font-size="13" lengthAdjust="spacing" textLength="183.4409" x="509.6685" y="870.8203">validate_tags(metadata_map)</text></g><g class="message" data-participant-1="Core" data-participant-2="CLI"><polygon fill="#181818" points="191.5469,913.873,181.5469,917.873,191.5469,921.873,187.5469,917.873" style="stroke:#181818;stroke-width:1;"/><line style="stroke:#181818;stroke-width:1;stroke-dasharray:2,2;" x1="185.5469" x2="501.6685" y1="917.873" y2="917.873"/><text fill="#000000" font-family="sans-serif" font-size="13" lengthAdjust="spacing" textLength="131.041" x="197.5469" y="913.1309">Result::Ok(Metadata)</text></g><g class="message" data-participant-1="CLI" data-participant-2="CLI"><line style="stroke:#181818;stroke-width:1;" x1="180.5469" x2="222.5469" y1="947.1836" y2="947.1836"/><line style="stroke:#181818;stroke-width:1;" x1="222.5469" x2="222.5469" y1="947.1836" y2="960.1836"/><line style="stroke:#181818;stroke-width:1;" x1="181.5469" x2="222.5469" y1="960.1836" y2="960.1836"/><polygon fill="#181818" points="191.5469,956.1836,181.5469,960.1836,191.5469,964.1836,187.5469,960.1836" style="stroke:#181818;stroke-width:1;"/><text fill="#000000" font-family="sans-serif" font-size="13" lengthAdjust="spacing" textLength="308.1216" x="187.5469" y="942.4414">format_output(metadata, OutputFormat::Human)</text></g><g class="message" data-participant-1="CLI" data-participant-2="User"><polygon fill="#181818" points="34.1826,1031.4258,24.1826,1035.4258,34.1826,1039.4258,30.1826,1035.4258" style="stroke:#181818;stroke-width:1;"/><line style="stroke:#181818;stroke-width:1;stroke-dasharray:2,2;" x1="28.1826" x2="179.5469" y1="1035.4258" y2="1035.4258"/><text fill="#000000" font-family="sans-serif" font-size="13" lengthAdjust="spacing" textLength="109.916" x="40.1826" y="984.752">Output to stdout:</text><text fill="#000000" font-family="sans-serif" font-size="13" lengthAdjust="spacing" textLength="111.7505" x="48.4092" y="1000.0625">EXIF:Make: Canon</text><text fill="#000000" font-family="sans-serif" font-size="13" lengthAdjust="spacing" textLength="122.8208" x="48.4092" y="1015.373">EXIF:Model: EOS 5D</text><text fill="#000000" font-family="sans-serif" font-size="13" lengthAdjust="spacing" textLength="12.3398" x="48.4092" y="1030.6836">...</text></g><!--SRC=[TLHjQzim4FxkNt7aaysQbmusXXY5qSIRHq92qvL2EymjLX8ljYKaUKiO- -yxINOIP-s7lEZkUUxbkPDmPOI2RvghGA8o-IgNM1detKwJ7g06-hrm2CLXclzGg0xFLVXfaK2CAynuvF7axX9YeKeqpzMO6swJELXxw4A_BYQVOO6Agd4eU-uY9ez9t20e-NqInv34Ov_Q-hhenzdYF1mTk_vaE8Sf7boiafSbohS-L3Bl0kzn0tTyaskZ3WxG7YvQpGiEouCsl7IeU1a4LbhetrWXWG7VvsiZHD5N6kHM637uAJU1zLc8bPR1Z1lCq21ZQoNALABPXhqZk1S5WGCIeLMHI9dxcwwTs5tu4KMCP4vOnJ5BIzpag_J7mN1z3h-2w_THG302nqi22ychC88tZXL60HdxRI37XgVHFewlOBGVVx3VzlzWCFZkWdIBT3azwwogK-TMFxykZBdP7pjrcy50sc66kKYtM6K5Zm9dx_Ib-QRabQ7-r8uh7NQQyJq06X3hjUP6TzfnmHg-3W8iZDifM7eJnAAkCWXjYvFhA01eipjKKrrgHznM4RRLs7bQXaDUCA1TOw2DgbUcfXjqGhQRHkX2Y5qjKuCRgc5qFOeZ60vXXbMzHaTJG3xY7ZdzKofQuJ7NAvLBA_eVgB3ap5yeDiCTfycRWoJJqgYyshWPmjzZ8QSPFF3LHmhsW4NDRo1qRagheu1NcLVDthiNHOFVkTawjn_FkOZMscguB-Mh4bfS5mvtutZuE9kUd2-BrgEmx9PsmF0nVNhHfLG-PaUfDkQh_LllMVk-c_ylymmbYMw139xizI1js-LkeB-mo0dARQsQtYDFf4MMKGCzFYDtNDS5NPBvBcmJs6UXUKOSnBy4gQYDhCqnsXNCdQ6zPL_g4gl8Cudg7YlMOC08siYC8h3dok-1snG6jrY9wcGJ6IyOJEPBU3UsLcel-0S0]--></g></svg>