<svg xmlns="http://www.w3.org/2000/svg" xmlns:xlink="http://www.w3.org/1999/xlink" contentStyleType="text/css" data-diagram-type="SEQUENCE" height="1626px" preserveAspectRatio="none" style="width:1865px;height:1626px;background:#FFFFFF;" version="1.1" viewBox="0 0 1865 1626" width="1865px" zoomAndPan="magnify"><defs/><g><rect fill="none" height="1081.4688" style="stroke:#000000;stroke-width:1.5;" width="1848.4248" x="10" y="446.9043"/><rect fill="none" height="787.7188" style="stroke:#000000;stroke-width:1.5;" width="1323.3496" x="525.0752" y="572.1465"/><g><title>User</title><rect fill="#000000" fill-opacity="0.00000" height="1463.8848" width="8" x="34.1826" y="81.4883"/><line style="stroke:#181818;stroke-width:0.5;stroke-dasharray:5,5;" x1="38" x2="38" y1="81.4883" y2="1545.373"/></g><g><title>CLI</title><rect fill="#000000" fill-opacity="0.00000" height="1463.8848" width="8" x="344.8809" y="81.4883"/><line style="stroke:#181818;stroke-width:0.5;stroke-dasharray:5,5;" x1="348.2886" x2="348.2886" y1="81.4883" y2="1545.373"/></g><g><title>Core Library</title><rect fill="#000000" fill-opacity="0.00000" height="1463.8848" width="8" x="579.6104" y="81.4883"/><line style="stroke:#181818;stroke-width:0.5;stroke-dasharray:5,5;" x1="583.0752" x2="583.0752" y1="81.4883" y2="1545.373"/></g><g><title>JPEG Parser</title><rect fill="#000000" fill-opacity="0.00000" height="1463.8848" width="8" x="945.5942" y="81.4883"/><line style="stroke:#181818;stroke-width:0.5;stroke-dasharray:5,5;" x1="949.5488" x2="949.5488" y1="81.4883" y2="1545.373"/></g><g><title>Validation</title><rect fill="#000000" fill-opacity="0.00000" height="1463.8848" width="8" x="1041.686" y="81.4883"/><line style="stroke:#181818;stroke-width:0.5;stroke-dasharray:5,5;" x1="1045.6396" x2="1045.6396" y1="81.4883" y2="1545.373"/></g><g><title>Metadata Writer</title><rect fill="#000000" fill-opacity="0.00000" height="1463.8848" width="8" x="1237.1084" y="81.4883"/><line style="stroke:#181818;stroke-width:0.5;stroke-dasharray:5,5;" x1="1240.4668" x2="1240.4668" y1="81.4883" y2="1545.373"/></g><g><title>I.O Layer</title><rect fill="#000000" fill-opacity="0.00000" height="1463.8848" width="8" x="1589.9741" y="81.4883"/><line style="stroke:#181818;stroke-width:0.5;stroke-dasharray:5,5;" x1="1593.6143" x2="1593.6143" y1="81.4883" y2="1545.373"/></g><g><title>File System</title><rect fill="#000000" fill-opacity="0.00000" height="1463.8848" width="8" x="1789.4614" y="81.4883"/><line style="stroke:#181818;stroke-width:0.5;stroke-dasharray:5,5;" x1="1792.498" x2="1792.498" y1="81.4883" y2="1545.373"/></g><g class="participant participant-head" data-participant="User"><text fill="#000000" font-family="sans-serif" font-size="14" lengthAdjust="spacing" textLength="30.3652" x="20" y="78.5352">User</text><ellipse cx="38.1826" cy="13.5" fill="#E2E2F0" rx="8" ry="8" style="stroke:#181818;stroke-width:0.5;"/><path d="M38.1826,21.5 L38.1826,48.5 M25.1826,29.5 L51.1826,29.5 M38.1826,48.5 L25.1826,63.5 M38.1826,48.5 L51.1826,63.5" fill="none" style="stroke:#181818;stroke-width:0.5;"/></g><g class="participant participant-tail" data-participant="User"><text fill="#000000" font-family="sans-serif" font-size="14" lengthAdjust="spacing" textLength="30.3652" x="20" y="1557.9082">User</text><ellipse cx="38.1826" cy="1569.3613" fill="#E2E2F0" rx="8" ry="8" style="stroke:#181818;stroke-width:0.5;"/><path d="M38.1826,1577.3613 L38.1826,1604.3613 M25.1826,1585.3613 L51.1826,1585.3613 M38.1826,1604.3613 L25.1826,1619.3613 M38.1826,1604.3613 L51.1826,1619.3613" fill="none" style="stroke:#181818;stroke-width:0.5;"/></g><g class="participant participant-head" data-participant="CLI"><rect fill="#E2E2F0" height="30.4883" rx="2.5" ry="2.5" style="stroke:#181818;stroke-width:0.5;" width="35.1846" x="331.2886" y="50"/><text fill="#000000" font-family="sans-serif" font-size="14" lengthAdjust="spacing" textLength="21.1846" x="338.2886" y="70.5352">CLI</text></g><g class="participant participant-tail" data-participant="CLI"><rect fill="#E2E2F0" height="30.4883" rx="2.5" ry="2.5" style="stroke:#181818;stroke-width:0.5;" width="35.1846" x="331.2886" y="1544.373"/><text fill="#000000" font-family="sans-serif" font-size="14" lengthAdjust="spacing" textLength="21.1846" x="338.2886" y="1564.9082">CLI</text></g><g class="participant participant-head" data-participant="Core"><rect fill="#E2E2F0" height="30.4883" rx="2.5" ry="2.5" style="stroke:#181818;stroke-width:0.5;" width="97.0703" x="535.0752" y="50"/><text fill="#000000" font-family="sans-serif" font-size="14" lengthAdjust="spacing" textLength="83.0703" x="542.0752" y="70.5352">Core Library</text></g><g class="participant participant-tail" data-participant="Core"><rect fill="#E2E2F0" height="30.4883" rx="2.5" ry="2.5" style="stroke:#181818;stroke-width:0.5;" width="97.0703" x="535.0752" y="1544.373"/><text fill="#000000" font-family="sans-serif" font-size="14" lengthAdjust="spacing" textLength="83.0703" x="542.0752" y="1564.9082">Core Library</text></g><g class="participant participant-head" data-participant="JPEG"><rect fill="#E2E2F0" height="30.4883" rx="2.5" ry="2.5" style="stroke:#181818;stroke-width:0.5;" width="90.0908" x="904.5488" y="50"/><text fill="#000000" font-family="sans-serif" font-size="14" lengthAdjust="spacing" textLength="76.0908" x="911.5488" y="70.5352">JPEG Parser</text></g><g class="participant participant-tail" data-participant="JPEG"><rect fill="#E2E2F0" height="30.4883" rx="2.5" ry="2.5" style="stroke:#181818;stroke-width:0.5;" width="90.0908" x="904.5488" y="1544.373"/><text fill="#000000" font-family="sans-serif" font-size="14" lengthAdjust="spacing" textLength="76.0908" x="911.5488" y="1564.9082">JPEG Parser</text></g><g class="participant participant-head" data-participant="Validation"><rect fill="#E2E2F0" height="30.4883" rx="2.5" ry="2.5" style="stroke:#181818;stroke-width:0.5;" width="82.0928" x="1004.6396" y="50"/><text fill="#000000" font-family="sans-serif" font-size="14" lengthAdjust="spacing" textLength="68.0928" x="1011.6396" y="70.5352">Validation</text></g><g class="participant participant-tail" data-participant="Validation"><rect fill="#E2E2F0" height="30.4883" rx="2.5" ry="2.5" style="stroke:#181818;stroke-width:0.5;" width="82.0928" x="1004.6396" y="1544.373"/><text fill="#000000" font-family="sans-serif" font-size="14" lengthAdjust="spacing" textLength="68.0928" x="1011.6396" y="1564.9082">Validation</text></g><g class="participant participant-head" data-participant="Writer"><rect fill="#E2E2F0" height="30.4883" rx="2.5" ry="2.5" style="stroke:#181818;stroke-width:0.5;" width="121.2832" x="1180.4668" y="50"/><text fill="#000000" font-family="sans-serif" font-size="14" lengthAdjust="spacing" textLength="107.2832" x="1187.4668" y="70.5352">Metadata Writer</text></g><g class="participant participant-tail" data-participant="Writer"><rect fill="#E2E2F0" height="30.4883" rx="2.5" ry="2.5" style="stroke:#181818;stroke-width:0.5;" width="121.2832" x="1180.4668" y="1544.373"/><text fill="#000000" font-family="sans-serif" font-size="14" lengthAdjust="spacing" textLength="107.2832" x="1187.4668" y="1564.9082">Metadata Writer</text></g><g class="participant participant-head" data-participant="IO"><rect fill="#E2E2F0" height="30.4883" rx="2.5" ry="2.5" style="stroke:#181818;stroke-width:0.5;" width="76.7197" x="1555.6143" y="50"/><text fill="#000000" font-family="sans-serif" font-size="14" lengthAdjust="spacing" textLength="62.7197" x="1562.6143" y="70.5352">I/O Layer</text></g><g class="participant participant-tail" data-participant="IO"><rect fill="#E2E2F0" height="30.4883" rx="2.5" ry="2.5" style="stroke:#181818;stroke-width:0.5;" width="76.7197" x="1555.6143" y="1544.373"/><text fill="#000000" font-family="sans-serif" font-size="14" lengthAdjust="spacing" textLength="62.7197" x="1562.6143" y="1564.9082">I/O Layer</text></g><g class="participant participant-head" data-participant="FS"><rect fill="#E2E2F0" height="30.4883" rx="2.5" ry="2.5" style="stroke:#181818;stroke-width:0.5;" width="89.9268" x="1748.498" y="50"/><text fill="#000000" font-family="sans-serif" font-size="14" lengthAdjust="spacing" textLength="75.9268" x="1755.498" y="70.5352">File System</text></g><g class="participant participant-tail" data-participant="FS"><rect fill="#E2E2F0" height="30.4883" rx="2.5" ry="2.5" style="stroke:#181818;stroke-width:0.5;" width="89.9268" x="1748.498" y="1544.373"/><text fill="#000000" font-family="sans-serif" font-size="14" lengthAdjust="spacing" textLength="75.9268" x="1755.498" y="1564.9082">File System</text></g><g class="message" data-participant-1="User" data-participant-2="CLI"><polygon fill="#181818" points="336.8809,108.7988,346.8809,112.7988,336.8809,116.7988,340.8809,112.7988" style="stroke:#181818;stroke-width:1;"/><line style="stroke:#181818;stroke-width:1;" x1="38.1826" x2="342.8809" y1="112.7988" y2="112.7988"/><text fill="#000000" font-family="sans-serif" font-size="13" lengthAdjust="spacing" textLength="286.6982" x="45.1826" y="108.0566">exiftool-rs -EXIF:Artist="John Doe" photo.jpg</text></g><g class="message" data-participant-1="CLI" data-participant-2="Core"><polygon fill="#181818" points="571.6104,138.1094,581.6104,142.1094,571.6104,146.1094,575.6104,142.1094" style="stroke:#181818;stroke-width:1;"/><line style="stroke:#181818;stroke-width:1;" x1="348.8809" x2="577.6104" y1="142.1094" y2="142.1094"/><text fill="#000000" font-family="sans-serif" font-size="13" lengthAdjust="spacing" textLength="210.7295" x="355.8809" y="137.3672">Metadata::from_path("photo.jpg")</text></g><g class="message" data-participant-1="Core" data-participant-2="JPEG"><polygon fill="#181818" points="937.5942,167.4199,947.5942,171.4199,937.5942,175.4199,941.5942,171.4199" style="stroke:#181818;stroke-width:1;"/><line style="stroke:#181818;stroke-width:1;" x1="583.6104" x2="943.5942" y1="171.4199" y2="171.4199"/><text fill="#000000" font-family="sans-serif" font-size="13" lengthAdjust="spacing" textLength="62.5435" x="590.6104" y="166.6777">parse(file)</text></g><g class="message" data-participant-1="JPEG" data-participant-2="IO"><polygon fill="#181818" points="1581.9741,196.7305,1591.9741,200.7305,1581.9741,204.7305,1585.9741,200.7305" style="stroke:#181818;stroke-width:1;"/><line style="stroke:#181818;stroke-width:1;" x1="949.5942" x2="1587.9741" y1="200.7305" y2="200.7305"/><text fill="#000000" font-family="sans-serif" font-size="13" lengthAdjust="spacing" textLength="133.5674" x="956.5942" y="195.9883">read_file("photo.jpg")</text></g><g class="message" data-participant-1="IO" data-participant-2="FS"><polygon fill="#181818" points="1781.4614,226.041,1791.4614,230.041,1781.4614,234.041,1785.4614,230.041" style="stroke:#181818;stroke-width:1;"/><line style="stroke:#181818;stroke-width:1;" x1="1593.9741" x2="1787.4614" y1="230.041" y2="230.041"/><text fill="#000000" font-family="sans-serif" font-size="13" lengthAdjust="spacing" textLength="94.8721" x="1600.9741" y="225.2988">open() + read()</text></g><g class="message" data-participant-1="FS" data-participant-2="IO"><polygon fill="#181818" points="1604.9741,255.3516,1594.9741,259.3516,1604.9741,263.3516,1600.9741,259.3516" style="stroke:#181818;stroke-width:1;"/><line style="stroke:#181818;stroke-width:1;stroke-dasharray:2,2;" x1="1598.9741" x2="1792.4614" y1="259.3516" y2="259.3516"/><text fill="#000000" font-family="sans-serif" font-size="13" lengthAdjust="spacing" textLength="59.7441" x="1610.9741" y="254.6094">file_bytes</text></g><g class="message" data-participant-1="IO" data-participant-2="JPEG"><polygon fill="#181818" points="960.5942,284.6621,950.5942,288.6621,960.5942,292.6621,956.5942,288.6621" style="stroke:#181818;stroke-width:1;"/><line style="stroke:#181818;stroke-width:1;stroke-dasharray:2,2;" x1="954.5942" x2="1592.9741" y1="288.6621" y2="288.6621"/><text fill="#000000" font-family="sans-serif" font-size="13" lengthAdjust="spacing" textLength="53.4409" x="966.5942" y="283.9199">file_data</text></g><g class="message" data-participant-1="JPEG" data-participant-2="Core"><polygon fill="#181818" points="594.6104,313.9727,584.6104,317.9727,594.6104,321.9727,590.6104,317.9727" style="stroke:#181818;stroke-width:1;"/><line style="stroke:#181818;stroke-width:1;stroke-dasharray:2,2;" x1="588.6104" x2="948.5942" y1="317.9727" y2="317.9727"/><text fill="#000000" font-family="sans-serif" font-size="13" lengthAdjust="spacing" textLength="115.7178" x="600.6104" y="313.2305">existing_metadata</text></g><g class="message" data-participant-1="Core" data-participant-2="Core"><line style="stroke:#181818;stroke-width:1;" x1="583.6104" x2="625.6104" y1="347.2832" y2="347.2832"/><line style="stroke:#181818;stroke-width:1;" x1="625.6104" x2="625.6104" y1="347.2832" y2="360.2832"/><line style="stroke:#181818;stroke-width:1;" x1="584.6104" x2="625.6104" y1="360.2832" y2="360.2832"/><polygon fill="#181818" points="594.6104,356.2832,584.6104,360.2832,594.6104,364.2832,590.6104,360.2832" style="stroke:#181818;stroke-width:1;"/><text fill="#000000" font-family="sans-serif" font-size="13" lengthAdjust="spacing" textLength="351.9839" x="590.6104" y="342.541">modify_tag(existing_metadata, "EXIF:Artist", "John Doe")</text></g><g class="message" data-participant-1="Core" data-participant-2="Validation"><polygon fill="#181818" points="1033.686,385.5938,1043.686,389.5938,1033.686,393.5938,1037.686,389.5938" style="stroke:#181818;stroke-width:1;"/><line style="stroke:#181818;stroke-width:1;" x1="583.6104" x2="1039.686" y1="389.5938" y2="389.5938"/><text fill="#000000" font-family="sans-serif" font-size="13" lengthAdjust="spacing" textLength="272.7715" x="590.6104" y="384.8516">validate_tag_value("EXIF:Artist", "John Doe")</text></g><g class="message" data-participant-1="Validation" data-participant-2="Validation"><line style="stroke:#181818;stroke-width:1;" x1="1045.686" x2="1087.686" y1="418.9043" y2="418.9043"/><line style="stroke:#181818;stroke-width:1;" x1="1087.686" x2="1087.686" y1="418.9043" y2="431.9043"/><line style="stroke:#181818;stroke-width:1;" x1="1046.686" x2="1087.686" y1="431.9043" y2="431.9043"/><polygon fill="#181818" points="1056.686,427.9043,1046.686,431.9043,1056.686,435.9043,1052.686,431.9043" style="stroke:#181818;stroke-width:1;"/><text fill="#000000" font-family="sans-serif" font-size="13" lengthAdjust="spacing" textLength="181.4224" x="1052.686" y="414.1621">check_tag_type_constraints()</text></g><path d="M10,446.9043 L72.1387,446.9043 L72.1387,454.2148 L62.1387,464.2148 L10,464.2148 L10,446.9043" fill="#EEEEEE" style="stroke:#000000;stroke-width:1.5;"/><rect fill="none" height="1081.4688" style="stroke:#000000;stroke-width:1.5;" width="1848.4248" x="10" y="446.9043"/><text fill="#000000" font-family="sans-serif" font-size="13" font-weight="bold" lengthAdjust="spacing" textLength="17.1387" x="25" y="460.4727">alt</text><text fill="#000000" font-family="sans-serif" font-size="11" font-weight="bold" lengthAdjust="spacing" textLength="107.4434" x="87.1387" y="459.5391">[Validation Passes]</text><g class="message" data-participant-1="Validation" data-participant-2="Core"><polygon fill="#181818" points="594.6104,481.5254,584.6104,485.5254,594.6104,489.5254,590.6104,485.5254" style="stroke:#181818;stroke-width:1;"/><line style="stroke:#181818;stroke-width:1;stroke-dasharray:2,2;" x1="588.6104" x2="1044.686" y1="485.5254" y2="485.5254"/><text fill="#000000" font-family="sans-serif" font-size="13" lengthAdjust="spacing" textLength="127.9307" x="600.6104" y="480.7832">ValidationResult::Ok</text></g><g class="message" data-participant-1="Core" data-participant-2="Writer"><polygon fill="#181818" points="1229.1084,510.8359,1239.1084,514.8359,1229.1084,518.8359,1233.1084,514.8359" style="stroke:#181818;stroke-width:1;"/><line style="stroke:#181818;stroke-width:1;" x1="583.6104" x2="1235.1084" y1="514.8359" y2="514.8359"/><text fill="#000000" font-family="sans-serif" font-size="13" lengthAdjust="spacing" textLength="398.0488" x="590.6104" y="510.0938">write_metadata(file, modified_metadata, WriteStrategy::InPlace)</text></g><g class="message" data-participant-1="Writer" data-participant-2="Writer"><line style="stroke:#181818;stroke-width:1;" x1="1241.1084" x2="1283.1084" y1="544.1465" y2="544.1465"/><line style="stroke:#181818;stroke-width:1;" x1="1283.1084" x2="1283.1084" y1="544.1465" y2="557.1465"/><line style="stroke:#181818;stroke-width:1;" x1="1242.1084" x2="1283.1084" y1="557.1465" y2="557.1465"/><polygon fill="#181818" points="1252.1084,553.1465,1242.1084,557.1465,1252.1084,561.1465,1248.1084,557.1465" style="stroke:#181818;stroke-width:1;"/><text fill="#000000" font-family="sans-serif" font-size="13" lengthAdjust="spacing" textLength="225.6211" x="1248.1084" y="539.4043">check_format_write_capability(JPEG)</text></g><path d="M525.0752,572.1465 L587.2139,572.1465 L587.2139,579.457 L577.2139,589.457 L525.0752,589.457 L525.0752,572.1465" fill="#EEEEEE" style="stroke:#000000;stroke-width:1.5;"/><rect fill="none" height="787.7188" style="stroke:#000000;stroke-width:1.5;" width="1323.3496" x="525.0752" y="572.1465"/><text fill="#000000" font-family="sans-serif" font-size="13" font-weight="bold" lengthAdjust="spacing" textLength="17.1387" x="540.0752" y="585.7148">alt</text><text fill="#000000" font-family="sans-serif" font-size="11" font-weight="bold" lengthAdjust="spacing" textLength="199.8745" x="602.2139" y="584.7813">[JPEG supports in-place EXIF write]</text><g class="message" data-participant-1="Writer" data-participant-2="IO"><polygon fill="#181818" points="1581.9741,606.7676,1591.9741,610.7676,1581.9741,614.7676,1585.9741,610.7676" style="stroke:#181818;stroke-width:1;"/><line style="stroke:#181818;stroke-width:1;" x1="1241.1084" x2="1587.9741" y1="610.7676" y2="610.7676"/><text fill="#000000" font-family="sans-serif" font-size="13" lengthAdjust="spacing" textLength="197.7866" x="1248.1084" y="606.0254">read_file_to_buffer("photo.jpg")</text></g><g class="message" data-participant-1="IO" data-participant-2="FS"><polygon fill="#181818" points="1781.4614,636.0781,1791.4614,640.0781,1781.4614,644.0781,1785.4614,640.0781" style="stroke:#181818;stroke-width:1;"/><line style="stroke:#181818;stroke-width:1;" x1="1593.9741" x2="1787.4614" y1="640.0781" y2="640.0781"/><text fill="#000000" font-family="sans-serif" font-size="13" lengthAdjust="spacing" textLength="36.3784" x="1600.9741" y="635.3359">read()</text></g><g class="message" data-participant-1="FS" data-participant-2="IO"><polygon fill="#181818" points="1604.9741,665.3887,1594.9741,669.3887,1604.9741,673.3887,1600.9741,669.3887" style="stroke:#181818;stroke-width:1;"/><line style="stroke:#181818;stroke-width:1;stroke-dasharray:2,2;" x1="1598.9741" x2="1792.4614" y1="669.3887" y2="669.3887"/><text fill="#000000" font-family="sans-serif" font-size="13" lengthAdjust="spacing" textLength="59.7441" x="1610.9741" y="664.6465">file_bytes</text></g><g class="message" data-participant-1="IO" data-participant-2="Writer"><polygon fill="#181818" points="1252.1084,694.6992,1242.1084,698.6992,1252.1084,702.6992,1248.1084,698.6992" style="stroke:#181818;stroke-width:1;"/><line style="stroke:#181818;stroke-width:1;stroke-dasharray:2,2;" x1="1246.1084" x2="1592.9741" y1="698.6992" y2="698.6992"/><text fill="#000000" font-family="sans-serif" font-size="13" lengthAdjust="spacing" textLength="64.4097" x="1258.1084" y="693.957">file_buffer</text></g><g class="message" data-participant-1="Writer" data-participant-2="Writer"><line style="stroke:#181818;stroke-width:1;" x1="1241.1084" x2="1283.1084" y1="728.0098" y2="728.0098"/><line style="stroke:#181818;stroke-width:1;" x1="1283.1084" x2="1283.1084" y1="728.0098" y2="741.0098"/><line style="stroke:#181818;stroke-width:1;" x1="1242.1084" x2="1283.1084" y1="741.0098" y2="741.0098"/><polygon fill="#181818" points="1252.1084,737.0098,1242.1084,741.0098,1252.1084,745.0098,1248.1084,741.0098" style="stroke:#181818;stroke-width:1;"/><text fill="#000000" font-family="sans-serif" font-size="13" lengthAdjust="spacing" textLength="196.9233" x="1248.1084" y="723.2676">locate_exif_segment(file_bytes)</text></g><g class="message" data-participant-1="Writer" data-participant-2="Writer"><line style="stroke:#181818;stroke-width:1;" x1="1241.1084" x2="1283.1084" y1="770.3203" y2="770.3203"/><line style="stroke:#181818;stroke-width:1;" x1="1283.1084" x2="1283.1084" y1="770.3203" y2="783.3203"/><line style="stroke:#181818;stroke-width:1;" x1="1242.1084" x2="1283.1084" y1="783.3203" y2="783.3203"/><polygon fill="#181818" points="1252.1084,779.3203,1242.1084,783.3203,1252.1084,787.3203,1248.1084,783.3203" style="stroke:#181818;stroke-width:1;"/><text fill="#000000" font-family="sans-serif" font-size="13" lengthAdjust="spacing" textLength="235.6123" x="1248.1084" y="765.5781">serialize_exif_ifd(modified_metadata)</text></g><g class="message" data-participant-1="Writer" data-participant-2="Writer"><line style="stroke:#181818;stroke-width:1;" x1="1241.1084" x2="1283.1084" y1="812.6309" y2="812.6309"/><line style="stroke:#181818;stroke-width:1;" x1="1283.1084" x2="1283.1084" y1="812.6309" y2="825.6309"/><line style="stroke:#181818;stroke-width:1;" x1="1242.1084" x2="1283.1084" y1="825.6309" y2="825.6309"/><polygon fill="#181818" points="1252.1084,821.6309,1242.1084,825.6309,1252.1084,829.6309,1248.1084,825.6309" style="stroke:#181818;stroke-width:1;"/><text fill="#000000" font-family="sans-serif" font-size="13" lengthAdjust="spacing" textLength="292.0049" x="1248.1084" y="807.8887">replace_segment_in_buffer(old_exif, new_exif)</text></g><g class="message" data-participant-1="Writer" data-participant-2="IO"><polygon fill="#181818" points="1581.9741,850.9414,1591.9741,854.9414,1581.9741,858.9414,1585.9741,854.9414" style="stroke:#181818;stroke-width:1;"/><line style="stroke:#181818;stroke-width:1;" x1="1241.1084" x2="1587.9741" y1="854.9414" y2="854.9414"/><text fill="#000000" font-family="sans-serif" font-size="13" lengthAdjust="spacing" textLength="328.8657" x="1248.1084" y="850.1992">write_to_temp_file("photo.jpg.tmp", modified_bytes)</text></g><g class="message" data-participant-1="IO" data-participant-2="FS"><polygon fill="#181818" points="1781.4614,880.252,1791.4614,884.252,1781.4614,888.252,1785.4614,884.252" style="stroke:#181818;stroke-width:1;"/><line style="stroke:#181818;stroke-width:1;" x1="1593.9741" x2="1787.4614" y1="884.252" y2="884.252"/><text fill="#000000" font-family="sans-serif" font-size="13" lengthAdjust="spacing" textLength="144.0981" x="1600.9741" y="879.5098">create_temp() + write()</text></g><g class="message" data-participant-1="FS" data-participant-2="IO"><polygon fill="#181818" points="1604.9741,909.5625,1594.9741,913.5625,1604.9741,917.5625,1600.9741,913.5625" style="stroke:#181818;stroke-width:1;"/><line style="stroke:#181818;stroke-width:1;stroke-dasharray:2,2;" x1="1598.9741" x2="1792.4614" y1="913.5625" y2="913.5625"/><text fill="#000000" font-family="sans-serif" font-size="13" lengthAdjust="spacing" textLength="111.6489" x="1610.9741" y="908.8203">temp_file_created</text></g><g class="message" data-participant-1="Writer" data-participant-2="IO"><polygon fill="#181818" points="1581.9741,938.873,1591.9741,942.873,1581.9741,946.873,1585.9741,942.873" style="stroke:#181818;stroke-width:1;"/><line style="stroke:#181818;stroke-width:1;" x1="1241.1084" x2="1587.9741" y1="942.873" y2="942.873"/><text fill="#000000" font-family="sans-serif" font-size="13" lengthAdjust="spacing" textLength="284.5464" x="1248.1084" y="938.1309">atomic_rename("photo.jpg.tmp", "photo.jpg")</text></g><g class="message" data-participant-1="IO" data-participant-2="FS"><polygon fill="#181818" points="1781.4614,968.1836,1791.4614,972.1836,1781.4614,976.1836,1785.4614,972.1836" style="stroke:#181818;stroke-width:1;"/><line style="stroke:#181818;stroke-width:1;" x1="1593.9741" x2="1787.4614" y1="972.1836" y2="972.1836"/><text fill="#000000" font-family="sans-serif" font-size="13" lengthAdjust="spacing" textLength="175.4873" x="1600.9741" y="967.4414">rename() [atomic operation]</text></g><g class="message" data-participant-1="FS" data-participant-2="IO"><polygon fill="#181818" points="1604.9741,997.4941,1594.9741,1001.4941,1604.9741,1005.4941,1600.9741,1001.4941" style="stroke:#181818;stroke-width:1;"/><line style="stroke:#181818;stroke-width:1;stroke-dasharray:2,2;" x1="1598.9741" x2="1792.4614" y1="1001.4941" y2="1001.4941"/><text fill="#000000" font-family="sans-serif" font-size="13" lengthAdjust="spacing" textLength="48.5088" x="1610.9741" y="996.752">success</text></g><g class="message" data-participant-1="IO" data-participant-2="Writer"><polygon fill="#181818" points="1252.1084,1026.8047,1242.1084,1030.8047,1252.1084,1034.8047,1248.1084,1030.8047" style="stroke:#181818;stroke-width:1;"/><line style="stroke:#181818;stroke-width:1;stroke-dasharray:2,2;" x1="1246.1084" x2="1592.9741" y1="1030.8047" y2="1030.8047"/><text fill="#000000" font-family="sans-serif" font-size="13" lengthAdjust="spacing" textLength="95.7671" x="1258.1084" y="1026.0625">write_complete</text></g><g class="message" data-participant-1="Writer" data-participant-2="Core"><polygon fill="#181818" points="594.6104,1056.1152,584.6104,1060.1152,594.6104,1064.1152,590.6104,1060.1152" style="stroke:#181818;stroke-width:1;"/><line style="stroke:#181818;stroke-width:1;stroke-dasharray:2,2;" x1="588.6104" x2="1240.1084" y1="1060.1152" y2="1060.1152"/><text fill="#000000" font-family="sans-serif" font-size="13" lengthAdjust="spacing" textLength="128.1909" x="600.6104" y="1055.373">WriteResult::Success</text></g><line style="stroke:#000000;stroke-width:1;stroke-dasharray:2,2;" x1="525.0752" x2="1848.4248" y1="1069.1152" y2="1069.1152"/><text fill="#000000" font-family="sans-serif" font-size="11" font-weight="bold" lengthAdjust="spacing" textLength="246.2432" x="530.0752" y="1079.75">[EXIF segment doesn't fit (new data larger)]</text><g class="message" data-participant-1="Writer" data-participant-2="Writer"><line style="stroke:#181818;stroke-width:1;" x1="1241.1084" x2="1283.1084" y1="1104.3809" y2="1104.3809"/><line style="stroke:#181818;stroke-width:1;" x1="1283.1084" x2="1283.1084" y1="1104.3809" y2="1117.3809"/><line style="stroke:#181818;stroke-width:1;" x1="1242.1084" x2="1283.1084" y1="1117.3809" y2="1117.3809"/><polygon fill="#181818" points="1252.1084,1113.3809,1242.1084,1117.3809,1252.1084,1121.3809,1248.1084,1117.3809" style="stroke:#181818;stroke-width:1;"/><text fill="#000000" font-family="sans-serif" font-size="13" lengthAdjust="spacing" textLength="216.5313" x="1248.1084" y="1099.6387">rewrite_entire_file_with_new_exif()</text></g><g class="message" data-participant-1="Writer" data-participant-2="IO"><polygon fill="#181818" points="1581.9741,1142.6914,1591.9741,1146.6914,1581.9741,1150.6914,1585.9741,1146.6914" style="stroke:#181818;stroke-width:1;"/><line style="stroke:#181818;stroke-width:1;" x1="1241.1084" x2="1587.9741" y1="1146.6914" y2="1146.6914"/><text fill="#000000" font-family="sans-serif" font-size="13" lengthAdjust="spacing" textLength="319.2427" x="1248.1084" y="1141.9492">write_to_temp_file("photo.jpg.tmp", full_file_bytes)</text></g><g class="message" data-participant-1="IO" data-participant-2="FS"><polygon fill="#181818" points="1781.4614,1172.002,1791.4614,1176.002,1781.4614,1180.002,1785.4614,1176.002" style="stroke:#181818;stroke-width:1;"/><line style="stroke:#181818;stroke-width:1;" x1="1593.9741" x2="1787.4614" y1="1176.002" y2="1176.002"/><text fill="#000000" font-family="sans-serif" font-size="13" lengthAdjust="spacing" textLength="144.0981" x="1600.9741" y="1171.2598">create_temp() + write()</text></g><g class="message" data-participant-1="FS" data-participant-2="IO"><polygon fill="#181818" points="1604.9741,1201.3125,1594.9741,1205.3125,1604.9741,1209.3125,1600.9741,1205.3125" style="stroke:#181818;stroke-width:1;"/><line style="stroke:#181818;stroke-width:1;stroke-dasharray:2,2;" x1="1598.9741" x2="1792.4614" y1="1205.3125" y2="1205.3125"/><text fill="#000000" font-family="sans-serif" font-size="13" lengthAdjust="spacing" textLength="111.6489" x="1610.9741" y="1200.5703">temp_file_created</text></g><g class="message" data-participant-1="Writer" data-participant-2="IO"><polygon fill="#181818" points="1581.9741,1230.623,1591.9741,1234.623,1581.9741,1238.623,1585.9741,1234.623" style="stroke:#181818;stroke-width:1;"/><line style="stroke:#181818;stroke-width:1;" x1="1241.1084" x2="1587.9741" y1="1234.623" y2="1234.623"/><text fill="#000000" font-family="sans-serif" font-size="13" lengthAdjust="spacing" textLength="284.5464" x="1248.1084" y="1229.8809">atomic_rename("photo.jpg.tmp", "photo.jpg")</text></g><g class="message" data-participant-1="IO" data-participant-2="FS"><polygon fill="#181818" points="1781.4614,1259.9336,1791.4614,1263.9336,1781.4614,1267.9336,1785.4614,1263.9336" style="stroke:#181818;stroke-width:1;"/><line style="stroke:#181818;stroke-width:1;" x1="1593.9741" x2="1787.4614" y1="1263.9336" y2="1263.9336"/><text fill="#000000" font-family="sans-serif" font-size="13" lengthAdjust="spacing" textLength="175.4873" x="1600.9741" y="1259.1914">rename() [atomic operation]</text></g><g class="message" data-participant-1="FS" data-participant-2="IO"><polygon fill="#181818" points="1604.9741,1289.2441,1594.9741,1293.2441,1604.9741,1297.2441,1600.9741,1293.2441" style="stroke:#181818;stroke-width:1;"/><line style="stroke:#181818;stroke-width:1;stroke-dasharray:2,2;" x1="1598.9741" x2="1792.4614" y1="1293.2441" y2="1293.2441"/><text fill="#000000" font-family="sans-serif" font-size="13" lengthAdjust="spacing" textLength="48.5088" x="1610.9741" y="1288.502">success</text></g><g class="message" data-participant-1="IO" data-participant-2="Writer"><polygon fill="#181818" points="1252.1084,1318.5547,1242.1084,1322.5547,1252.1084,1326.5547,1248.1084,1322.5547" style="stroke:#181818;stroke-width:1;"/><line style="stroke:#181818;stroke-width:1;stroke-dasharray:2,2;" x1="1246.1084" x2="1592.9741" y1="1322.5547" y2="1322.5547"/><text fill="#000000" font-family="sans-serif" font-size="13" lengthAdjust="spacing" textLength="95.7671" x="1258.1084" y="1317.8125">write_complete</text></g><g class="message" data-participant-1="Writer" data-participant-2="Core"><polygon fill="#181818" points="594.6104,1347.8652,584.6104,1351.8652,594.6104,1355.8652,590.6104,1351.8652" style="stroke:#181818;stroke-width:1;"/><line style="stroke:#181818;stroke-width:1;stroke-dasharray:2,2;" x1="588.6104" x2="1240.1084" y1="1351.8652" y2="1351.8652"/><text fill="#000000" font-family="sans-serif" font-size="13" lengthAdjust="spacing" textLength="128.1909" x="600.6104" y="1347.123">WriteResult::Success</text></g><g class="message" data-participant-1="Core" data-participant-2="CLI"><polygon fill="#181818" points="359.8809,1384.1758,349.8809,1388.1758,359.8809,1392.1758,355.8809,1388.1758" style="stroke:#181818;stroke-width:1;"/><line style="stroke:#181818;stroke-width:1;stroke-dasharray:2,2;" x1="353.8809" x2="582.6104" y1="1388.1758" y2="1388.1758"/><text fill="#000000" font-family="sans-serif" font-size="13" lengthAdjust="spacing" textLength="144.2378" x="365.8809" y="1383.4336">Result::Ok(WriteResult)</text></g><g class="message" data-participant-1="CLI" data-participant-2="User"><polygon fill="#181818" points="49.1826,1413.4863,39.1826,1417.4863,49.1826,1421.4863,45.1826,1417.4863" style="stroke:#181818;stroke-width:1;"/><line style="stroke:#181818;stroke-width:1;stroke-dasharray:2,2;" x1="43.1826" x2="347.8809" y1="1417.4863" y2="1417.4863"/><text fill="#000000" font-family="sans-serif" font-size="13" lengthAdjust="spacing" textLength="137.0459" x="55.1826" y="1412.7441">1 image files updated</text></g><line style="stroke:#000000;stroke-width:1;stroke-dasharray:2,2;" x1="10" x2="1858.4248" y1="1426.4863" y2="1426.4863"/><text fill="#000000" font-family="sans-serif" font-size="11" font-weight="bold" lengthAdjust="spacing" textLength="95.2832" x="15" y="1437.1211">[Validation Fails]</text><g class="message" data-participant-1="Validation" data-participant-2="Core"><polygon fill="#181818" points="594.6104,1457.752,584.6104,1461.752,594.6104,1465.752,590.6104,1461.752" style="stroke:#181818;stroke-width:1;"/><line style="stroke:#181818;stroke-width:1;stroke-dasharray:2,2;" x1="588.6104" x2="1044.686" y1="1461.752" y2="1461.752"/><text fill="#000000" font-family="sans-serif" font-size="13" lengthAdjust="spacing" textLength="236.0439" x="600.6104" y="1457.0098">ValidationResult::Err(InvalidTagValue)</text></g><g class="message" data-participant-1="Core" data-participant-2="CLI"><polygon fill="#181818" points="359.8809,1487.0625,349.8809,1491.0625,359.8809,1495.0625,355.8809,1491.0625" style="stroke:#181818;stroke-width:1;"/><line style="stroke:#181818;stroke-width:1;stroke-dasharray:2,2;" x1="353.8809" x2="582.6104" y1="1491.0625" y2="1491.0625"/><text fill="#000000" font-family="sans-serif" font-size="13" lengthAdjust="spacing" textLength="172.8149" x="365.8809" y="1486.3203">Result::Err(InvalidTagValue)</text></g><g class="message" data-participant-1="CLI" data-participant-2="User"><polygon fill="#181818" points="49.1826,1516.373,39.1826,1520.373,49.1826,1524.373,45.1826,1520.373" style="stroke:#181818;stroke-width:1;"/><line style="stroke:#181818;stroke-width:1;stroke-dasharray:2,2;" x1="43.1826" x2="347.8809" y1="1520.373" y2="1520.373"/><text fill="#000000" font-family="sans-serif" font-size="13" lengthAdjust="spacing" textLength="208.4443" x="55.1826" y="1515.6309">Error: Invalid value for EXIF:Artist</text></g><!--SRC=[xLLDZzCm4BtdLuno8H7RHLmZWOHWYxfQr8h2WeIGvIPEQZQnBTjb2R-UiVFbz6CbE7DAF7xpFFDcFAQvbHe-6wOZHRNbELTKM8ZVtgrYe0RmUxGXDOCxljDKjnq23NF8xURcFMoeHbAFSEivufxMlA2MI-41qt8E-y0iHJk5BvhRdgpxdUDMBzPmHziUiLhFTvUyPh1jZMMDtrzkeyWb38lNBZt8WFtYfPMoNcW3YvklgsNs1lsDVHNVohs0TvB5eFRIokiVgegSZtDrGcGmn9XbfPODKTJkatW4nsdaSOZtgcIWd2v9YJ6baJVXrcgD6vhHWZZxt1tt4B7S8a8g9f8KddjeaaPeN0pUpf7iMikCzvZEynikmFwqANBCsbWkAjBqAKHZh3sYaGKlMs9fbPo0ho0Eb8fnEMervJmL5jb-TWlc-0Wk3fZfPOh0zPWetxFymRFOLZ6IIs6ifbnOWw94jBOXV4EDGL4Wj0KYJDQFp1ngcsNh1mGF2NJTXhX7zpCcx-jtrUd3MH68uXss68vbLPjbAx6fQOwbHiwUAsJjCYcbRgWbtH4vLNJ7QsxRn1NCUxgKVFNCGIcfhG4k5ieHWnEm2mvnuHdpdY9MajsXB9cUTvVp2JgiRondlT1SWqEOHRVjsO-2626rp5tbtKKZXbKD4pQPMDDBRdXBEHReT-_9oo8vqVoYisPUek4ymiKWWQmBJtW5WZtwFo_pYNnTHL0w71tg-6vUsqR5GGy4cGIAvYYfuq02VtKzvHc9nnD8vr6SYuTQsV2SQ2PeSoQKfolhVLBurf6uOQ9ztty_YSKSyfoPyxNkcrGsgcP7FJTTAcyPxjDsP6ErwHksBmaKaXdnp687MKYm5k2dVKrrnVGJTUs2G0AkMIVQ8xTxCXGpIV-rcEMXhibnN_wlvlbgYY8Q9-Nub4vJD0dyN0B-sKISVtepU0cyeHNpmyF0GHLUfiZtI32gbvJNVpEzRxHELi8_DPzeTUzUcVHob9VGyr0H9NK6FH3yqmKuj25ulI8dnny0]--></g></svg>